:FULLY-SPECIFIED
:FORCE-ALL-JOINTS-BE-3DOF
:DEGREES
1223
root -0.843739 14.6668 -17.0053 372.369 18.7976 363.097
lfemur 4.72499 -0.757192 -7.76348
ltibia 29.7139 -0 0
lfoot 2.26145 4.8006 -1.32463
ltoes -30.6764 0 0
rfemur -55.1811 -13.3516 19.9492
rtibia 78.9518 -0 0
rfoot -19.0028 -20.9886 0.00259942
rtoes 5.5962 -0 0
lowerback 12.7807 0.981571 -4.95323
upperback -3.88077 0.412784 -0.454604
thorax -11.4926 0.531012 2.20949
lowerneck -1.20692 -8.91295 -10.1857
upperneck 0.576954 -11.938 10.9942
head 1.64972 -5.91905 4.58634
lclavicle 8.01176e-15 -9.7464e-15 6.69481e-30
lhumerus -61.3465 -28.4846 115.116
lradius 95.4397 -0 0
lwrist 17.2299 0 0
lhand -21.8272 24.4589 0.471705
lfingers 7.12502 -0 0
lthumb 2.79718 54.2967 0.00425302
rclavicle 6.41398e-15 5.90351e-15 -4.88314e-31
rhumerus 66.5357 3.51692 -27.4593
rradius 93.9033 -0 0
rwrist -11.1621 0 0
rhand -30.5987 -35.1824 -0.0713814
rfingers 7.12502 -0 0
rthumb -2.88998 -64.1894 -0.0139903
1224
root -0.871568 14.7097 -16.8237 372.27 17.9789 362.53
lfemur 4.54133 -0.937255 -7.76193
ltibia 33.9816 -0 0
lfoot 3.38594 2.9468 -1.11667
ltoes -30.8352 0 0
rfemur -54.017 -12.371 20.697
rtibia 78.7484 -0 0
rfoot -19.1588 -21.0411 0.0100652
rtoes 4.62651 -0 0
lowerback 12.5921 1.03858 -4.60243
upperback -3.91714 0.566941 -0.388959
thorax -11.4266 0.581288 2.04951
lowerneck -1.44784 -8.77136 -10.1029
upperneck 0.710645 -11.7383 11.0072
head 1.70325 -5.81135 4.57446
lclavicle 1.47882e-15 -8.20541e-15 6.42914e-30
lhumerus -61.2957 -28.5371 115.166
lradius 94.5208 -0 0
lwrist 13.5282 0 0
lhand -23.397 23.9713 0.444521
lfingers 7.12502 -0 0
lthumb 2.53341 54.1866 0.0160832
rclavicle 7.80793e-15 6.45205e-15 -5.08492e-31
rhumerus 66.6641 4.50178 -27.4117
rradius 93.9928 -0 0
rwrist -11.8626 0 0
rhand -29.9951 -35.3781 -0.0713814
rfingers 7.12502 -0 0
rthumb -2.46565 -64.2347 -0.0125622
1225
root -0.895837 14.7513 -16.6457 372.147 17.2193 362.02
lfemur 4.39267 -1.08299 -7.76026
ltibia 38.5421 -0 0
lfoot 4.40967 1.25246 -0.894347
ltoes -31.0104 0 0
rfemur -52.8377 -11.4003 21.4666
rtibia 78.4742 -0 0
rfoot -19.4098 -21.1256 0.0217799
rtoes 3.54599 -0 0
lowerback 12.3681 1.09665 -4.25266
upperback -3.86817 0.725161 -0.319606
thorax -11.2422 0.630565 1.89515
lowerneck -1.67461 -8.65364 -9.96979
upperneck 0.685533 -11.5597 10.9291
head 1.7014 -5.71633 4.53129
lclavicle -4.89733e-15 -6.70141e-15 6.00042e-30
lhumerus -60.9829 -28.6353 115.096
lradius 93.4811 -0 0
lwrist 10.0155 0 0
lhand -24.9151 23.5007 0.405535
lfingers 7.12502 -0 0
lthumb 2.11706 54.0129 0.0337232
rclavicle 9.21861e-15 7.00716e-15 -5.15326e-31
rhumerus 66.7928 5.48113 -27.362
rradius 94.0693 -0 0
rwrist -12.3896 0 0
rhand -29.3953 -35.5727 -0.0693386
rfingers 7.12502 -0 0
rthumb -2.06431 -64.2776 -0.0109026
1226
root -0.917583 14.7968 -16.4691 371.989 16.5791 361.471
lfemur 4.28234 -1.19113 -7.75877
ltibia 43.3303 -0 0
lfoot 5.31671 -0.254935 -0.670652
ltoes -31.1996 0 0
rfemur -51.6556 -10.4505 22.2495
rtibia 78.1355 -0 0
rfoot -19.7485 -21.2396 0.0370015
rtoes 2.37474 -0 0
lowerback 12.2803 1.11667 -3.76686
upperback -3.97993 0.84171 -0.262421
thorax -11.313 0.657071 1.65739
lowerneck -1.31767 -8.46539 -9.82138
upperneck 0.520841 -11.3244 10.834
head 1.55612 -5.61108 4.51416
lclavicle -1.10383e-14 -5.25288e-15 5.42929e-30
lhumerus -60.0738 -28.9182 114.888
lradius 92.3347 -0 0
lwrist 6.73908 0 0
lhand -26.3605 23.0536 0.356825
lfingers 7.12502 -0 0
lthumb 1.56717 53.7832 0.0550825
rclavicle 1.06293e-14 7.56228e-15 -5.08492e-31
rhumerus 66.9204 6.44414 -27.311
rradius 94.1313 -0 0
rwrist -12.7217 0 0
rhand -28.8071 -35.7634 -0.0653575
rfingers 7.12502 -0 0
rthumb -1.69107 -64.3175 -0.00908975
1227
root -0.933418 14.8341 -16.2978 371.781 15.9635 360.914
lfemur 4.21369 -1.25842 -7.75774
ltibia 48.2812 -0 0
lfoot 6.09182 -1.54833 -0.459262
ltoes -31.4008 0 0
rfemur -50.4837 -9.53214 23.0364
rtibia 77.7383 -0 0
rfoot -20.1677 -21.3809 0.0549024
rtoes 1.1329 -0 0
lowerback 12.1678 1.13507 -3.21538
upperback -3.9285 0.974192 -0.168663
thorax -11.1836 0.68288 1.42124
lowerneck -1.37643 -8.32623 -9.7133
upperneck 0.407903 -11.124 10.7363
head 1.4999 -5.51092 4.47936
lclavicle -1.68657e-14 -3.87832e-15 4.74375e-30
lhumerus -58.6092 -29.3654 114.542
lradius 91.0958 -0 0
lwrist 3.74621 0 0
lhand -27.7128 22.6364 0.301042
lfingers 7.12502 -0 0
lthumb 0.90258 53.5054 0.0779497
rclavicle 1.20233e-14 8.11082e-15 -4.88314e-31
rhumerus 67.0456 7.38002 -27.2592
rradius 94.1774 -0 0
rwrist -12.8372 0 0
rhand -28.2383 -35.9478 -0.0596455
rfingers 7.12502 -0 0
rthumb -1.35102 -64.3537 -0.00721222
1228
root -0.94534 14.8652 -16.1299 371.59 15.4116 360.45
lfemur 4.19007 -1.28157 -7.75737
ltibia 53.3297 -0 0
lfoot 6.72029 -2.60094 -0.273958
ltoes -31.6118 0 0
rfemur -49.3354 -8.65501 23.8173
rtibia 77.2889 -0 0
rfoot -20.6603 -21.547 0.0746126
rtoes -0.159346 0 0
lowerback 12.1196 1.13454 -2.68019
upperback -3.91438 1.07139 -0.10031
thorax -11.1316 0.693962 1.17327
lowerneck -1.34762 -8.16195 -9.64029
upperneck 0.285209 -10.8971 10.6857
head 1.42901 -5.39973 4.46919
lclavicle -2.23011e-14 -2.59621e-15 3.97831e-30
lhumerus -56.6267 -29.9537 114.056
lradius 89.7786 -0 0
lwrist 1.08413 0 0
lhand -28.9512 22.2555 0.241311
lfingers 7.12502 -0 0
lthumb 0.142578 53.1875 0.100145
rclavicle 1.33838e-14 8.64619e-15 -4.55751e-31
rhumerus 67.1667 8.27797 -27.2074
rradius 94.2061 -0 0
rwrist -12.9844 0 0
rhand -27.6966 -36.1234 -0.0525034
rfingers 7.12502 -0 0
rthumb -1.04929 -64.3859 -0.00536584
